# xmcd
#
# Track frame offsets: 
#        150
#        19800
#        38328
#        58807
#        86112
#        107494
#        128573
#        149015
#        169020
#        187633
#        206377
#        225016
#
# Disc length: 3274 seconds
#
# Revision: 0
# Processed by: cddbd v1.5.2PL0 Copyright (c) Steve Scherf et al.
# Submitted via: ExactAudioCopy v1.3
#
DISCID=8c0cc80c
DTITLE=Todd Wolfe Band - Miles To Go
DYEAR=2013
DGENRE=Blues Rock
TTITLE0=Nuthin' But You
TTITLE1=Sunnyvale
TTITLE2=Locket Full Of Dreams
TTITLE3=Forty Four
TTITLE4=Day To Day
TTITLE5=Stay With Me Baby
TTITLE6=Against The Wall
TTITLE7=I Stand Alone
TTITLE8=Come What May
TTITLE9=Valley Of The Kings
TTITLE10=Livin' On A Dream
TTITLE11=The Inner Light
EXTD=
EXTT0=
EXTT1=
EXTT2=
EXTT3=
EXTT4=
EXTT5=
EXTT6=
EXTT7=
EXTT8=
EXTT9=
EXTT10=
EXTT11=
PLAYORDER=
